<svg width="28" height="23" viewBox="0 0 28 23" fill="none" xmlns="http://www.w3.org/2000/svg">
<path fill-rule="evenodd" clip-rule="evenodd" d="M3.63807 15.6406C3.62687 15.5327 3.53589 15.4507 3.42737 15.4507C3.31885 15.4507 3.22788 15.5327 3.21667 15.6406L3.04923 17.2536C2.98093 17.9116 2.4609 18.4316 1.80296 18.4999L0.18996 18.6674C0.0820165 18.6786 0 18.7695 0 18.8781C0 18.9866 0.0820165 19.0775 0.18996 19.0888L1.80296 19.2562C2.4609 19.3245 2.98093 19.8445 3.04923 20.5025L3.21667 22.1155C3.22788 22.2234 3.31885 22.3054 3.42737 22.3054C3.53589 22.3054 3.62687 22.2234 3.63807 22.1155L3.80551 20.5025C3.87381 19.8445 4.39385 19.3245 5.05178 19.2562L6.66478 19.0888C6.77273 19.0775 6.85474 18.9866 6.85474 18.8781C6.85474 18.7695 6.77273 18.6786 6.66478 18.6674L5.05178 18.4999C4.39385 18.4316 3.87381 17.9116 3.80551 17.2536L3.63807 15.6406Z" fill="#FFC803"/>
<path d="M20.5485 0.865723L20.2147 4.08066C20.0557 5.61314 18.8444 6.82443 17.3119 6.98351L14.097 7.31725L17.3119 7.65098C18.8444 7.81006 20.0557 9.02135 20.2147 10.5538L20.5485 13.7688L20.8822 10.5538C21.0413 9.02135 22.2526 7.81006 23.7851 7.65098L27 7.31725L23.7851 6.98351C22.2526 6.82443 21.0413 5.61314 20.8822 4.08067L20.5485 0.865723Z" fill="#77E6FF" stroke="#77E6FF" stroke-width="0.856971" stroke-linejoin="round"/>
</svg>
