<svg width="33" height="26" viewBox="0 0 33 26" fill="none" xmlns="http://www.w3.org/2000/svg">
<path fill-rule="evenodd" clip-rule="evenodd" d="M4.58041 17.3004C4.5663 17.1645 4.45176 17.0613 4.31513 17.0613C4.1785 17.0613 4.06396 17.1645 4.04985 17.3004L3.83904 19.3312C3.75305 20.1596 3.09832 20.8143 2.26997 20.9003L0.239164 21.1111C0.10326 21.1252 0 21.2398 0 21.3764C0 21.513 0.10326 21.6276 0.239164 21.6417L2.26997 21.8525C3.09832 21.9385 3.75305 22.5932 3.83904 23.4216L4.04985 25.4524C4.06396 25.5883 4.1785 25.6915 4.31513 25.6915C4.45176 25.6915 4.5663 25.5883 4.58041 25.4524L4.79122 23.4216C4.87721 22.5932 5.53194 21.9385 6.36029 21.8525L8.3911 21.6417C8.527 21.6276 8.63026 21.513 8.63026 21.3764C8.63026 21.2398 8.527 21.1252 8.3911 21.1111L6.36029 20.9003C5.53194 20.8143 4.87721 20.1596 4.79122 19.3312L4.58041 17.3004Z" fill="#C8D316"/>
<path fill-rule="evenodd" clip-rule="evenodd" d="M24.184 0.828883C24.1533 0.533093 23.904 0.30835 23.6066 0.30835C23.3092 0.30835 23.0599 0.533093 23.0292 0.828883L22.5704 5.24887C22.3833 7.05175 20.9582 8.47676 19.1554 8.66391L14.7354 9.12274C14.4396 9.15344 14.2148 9.40273 14.2148 9.7001C14.2148 9.99748 14.4396 10.2468 14.7354 10.2775L19.1554 10.7363C20.9582 10.9235 22.3833 12.3485 22.5704 14.1513L23.0292 18.5713C23.0599 18.8671 23.3092 19.0919 23.6066 19.0919C23.904 19.0919 24.1533 18.8671 24.184 18.5713L24.6428 14.1513C24.8299 12.3485 26.255 10.9235 28.0578 10.7363L32.4778 10.2775C32.7736 10.2468 32.9984 9.99748 32.9984 9.7001C32.9984 9.40273 32.7736 9.15344 32.4778 9.12274L28.0578 8.66391C26.255 8.47676 24.8299 7.05175 24.6428 5.24887L24.184 0.828883Z" fill="#4BE1F4"/>
</svg>
