<svg width="29" height="23" viewBox="0 0 29 23" fill="none" xmlns="http://www.w3.org/2000/svg">
<path fill-rule="evenodd" clip-rule="evenodd" d="M23.0699 10.135C23.0492 9.93719 22.8816 9.78687 22.6817 9.78687C22.4818 9.78687 22.3142 9.93719 22.2935 10.135L21.985 13.0915C21.8592 14.2974 20.9011 15.2506 19.6889 15.3758L16.7172 15.6827C16.5183 15.7032 16.3672 15.87 16.3672 16.0689C16.3672 16.2678 16.5183 16.4345 16.7172 16.4551L19.6889 16.762C20.9011 16.8871 21.8592 17.8403 21.985 19.0462L22.2935 22.0027C22.3142 22.2005 22.4818 22.3509 22.6817 22.3509C22.8816 22.3509 23.0492 22.2005 23.0699 22.0027L23.3784 19.0462C23.5042 17.8403 24.4623 16.8871 25.6745 16.762L28.6462 16.4551C28.8451 16.4345 28.9962 16.2678 28.9962 16.0689C28.9962 15.87 28.8451 15.7032 28.6462 15.6827L25.6745 15.3758C24.4623 15.2506 23.5042 14.2974 23.3784 13.0915L23.0699 10.135Z" fill="#F87388"/>
<path fill-rule="evenodd" clip-rule="evenodd" d="M5.05166 0.91294C5.0361 0.763054 4.90978 0.64917 4.75909 0.64917C4.6084 0.64917 4.48208 0.763054 4.46652 0.91294L4.23402 3.15268C4.13918 4.06626 3.41709 4.78835 2.50351 4.88319L0.26377 5.11569C0.113884 5.13125 0 5.25757 0 5.40826C0 5.55895 0.113884 5.68527 0.26377 5.70083L2.50351 5.93333C3.41709 6.02817 4.13918 6.75026 4.23402 7.66384L4.46652 9.90358C4.48208 10.0535 4.6084 10.1674 4.75909 10.1674C4.90978 10.1674 5.0361 10.0535 5.05166 9.90358L5.28416 7.66384C5.379 6.75027 6.10109 6.02817 7.01467 5.93333L9.25441 5.70083C9.4043 5.68527 9.51818 5.55895 9.51818 5.40826C9.51818 5.25757 9.4043 5.13125 9.25441 5.11569L7.01467 4.88319C6.1011 4.78835 5.379 4.06626 5.28416 3.15268L5.05166 0.91294Z" fill="#C8D316"/>
</svg>
