<svg width="32" height="30" viewBox="0 0 32 30" fill="none" xmlns="http://www.w3.org/2000/svg">
<path fill-rule="evenodd" clip-rule="evenodd" d="M9.74482 1.38529C9.71481 1.09615 9.47114 0.876465 9.18045 0.876465C8.88976 0.876465 8.64609 1.09615 8.61607 1.38529L8.16757 5.70582C7.98462 7.46814 6.59168 8.86109 4.82936 9.04403L0.508821 9.49254C0.219687 9.52255 0 9.76622 0 10.0569C0 10.3476 0.219687 10.5913 0.508821 10.6213L4.82936 11.0698C6.59168 11.2527 7.98462 12.6457 8.16757 14.408L8.61607 18.7285C8.64609 19.0177 8.88976 19.2374 9.18045 19.2374C9.47114 19.2374 9.71481 19.0177 9.74482 18.7285L10.1933 14.408C10.3763 12.6457 11.7692 11.2527 13.5315 11.0698L17.8521 10.6213C18.1412 10.5913 18.3609 10.3476 18.3609 10.0569C18.3609 9.76622 18.1412 9.52255 17.8521 9.49254L13.5315 9.04403C11.7692 8.86109 10.3763 7.46814 10.1933 5.70583L9.74482 1.38529Z" fill="#4BE1F4"/>
<path fill-rule="evenodd" clip-rule="evenodd" d="M27.8113 20.6234C27.7967 20.4829 27.6784 20.3762 27.5372 20.3762C27.396 20.3762 27.2777 20.4829 27.2631 20.6234L27.0452 22.7219C26.9564 23.5779 26.2798 24.2545 25.4238 24.3433L23.3253 24.5612C23.1848 24.5757 23.0781 24.6941 23.0781 24.8353C23.0781 24.9765 23.1848 25.0948 23.3253 25.1094L25.4238 25.3273C26.2798 25.4161 26.9564 26.0927 27.0452 26.9487L27.2631 29.0472C27.2777 29.1877 27.396 29.2944 27.5372 29.2944C27.6784 29.2944 27.7967 29.1877 27.8113 29.0472L28.0292 26.9487C28.118 26.0927 28.7946 25.4161 29.6506 25.3273L31.7491 25.1094C31.8896 25.0948 31.9963 24.9765 31.9963 24.8353C31.9963 24.6941 31.8896 24.5757 31.7491 24.5612L29.6506 24.3433C28.7946 24.2545 28.118 23.5779 28.0292 22.7219L27.8113 20.6234Z" fill="#FFC803"/>
</svg>
