<svg width="33" height="33" viewBox="0 0 33 33" fill="none" xmlns="http://www.w3.org/2000/svg">
<path fill-rule="evenodd" clip-rule="evenodd" d="M28.5577 24.3819C28.5443 24.2522 28.435 24.1537 28.3046 24.1537C28.1742 24.1537 28.065 24.2522 28.0515 24.3819L27.8504 26.3195C27.7683 27.1098 27.1436 27.7345 26.3533 27.8166L24.4157 28.0177C24.286 28.0312 24.1875 28.1404 24.1875 28.2708C24.1875 28.4012 24.286 28.5104 24.4157 28.5239L26.3533 28.725C27.1436 28.8071 27.7683 29.4318 27.8504 30.2221L28.0515 32.1597C28.065 32.2894 28.1742 32.3879 28.3046 32.3879C28.435 32.3879 28.5443 32.2894 28.5577 32.1597L28.7588 30.2221C28.8409 29.4318 29.4656 28.8071 30.2559 28.725L32.1935 28.5239C32.3232 28.5104 32.4217 28.4012 32.4217 28.2708C32.4217 28.1404 32.3232 28.0312 32.1935 28.0177L30.2559 27.8166C29.4656 27.7345 28.8409 27.1098 28.7588 26.3195L28.5577 24.3819Z" fill="#A36FFE"/>
<path fill-rule="evenodd" clip-rule="evenodd" d="M9.32245 0.456377C9.29553 0.197044 9.07697 0 8.81625 0C8.55552 0 8.33696 0.197044 8.31004 0.456377L7.90776 4.3316C7.74368 5.91227 6.4943 7.16165 4.91363 7.32573L1.03841 7.72801C0.779075 7.75493 0.582031 7.97349 0.582031 8.23422C0.582031 8.49494 0.779075 8.7135 1.03841 8.74042L4.91363 9.1427C6.4943 9.30679 7.74368 10.5562 7.90776 12.1368L8.31004 16.0121C8.33696 16.2714 8.55552 16.4684 8.81625 16.4684C9.07697 16.4684 9.29553 16.2714 9.32245 16.0121L9.72473 12.1368C9.88882 10.5562 11.1382 9.30679 12.7189 9.1427L16.5941 8.74042C16.8534 8.7135 17.0505 8.49494 17.0505 8.23422C17.0505 7.97349 16.8534 7.75493 16.5941 7.72801L12.7189 7.32573C11.1382 7.16165 9.88882 5.91227 9.72473 4.3316L9.32245 0.456377Z" fill="#C8D316"/>
</svg>
