<svg width="38" height="39" viewBox="0 0 38 39" fill="none" xmlns="http://www.w3.org/2000/svg">
<path fill-rule="evenodd" clip-rule="evenodd" d="M19.0761 0.610492C19.0492 0.352094 18.8315 0.155762 18.5717 0.155762C18.3119 0.155762 18.0941 0.352094 18.0673 0.610492L17.6665 4.47173C17.503 6.0467 16.2581 7.29156 14.6832 7.45506L10.8219 7.85589C10.5635 7.88271 10.3672 8.10048 10.3672 8.36026C10.3672 8.62005 10.5635 8.83782 10.8219 8.86464L14.6832 9.26547C16.2581 9.42896 17.503 10.6738 17.6665 12.2488L18.0673 16.11C18.0941 16.3684 18.3119 16.5648 18.5717 16.5648C18.8315 16.5648 19.0492 16.3684 19.0761 16.11L19.4769 12.2488C19.6404 10.6738 20.8853 9.42896 22.4602 9.26547L26.3215 8.86464C26.5799 8.83782 26.7762 8.62005 26.7762 8.36026C26.7762 8.10048 26.5799 7.88271 26.3215 7.85589L22.4602 7.45506C20.8853 7.29156 19.6404 6.0467 19.4769 4.47173L19.0761 0.610492Z" fill="#4BE1F4"/>
<path fill-rule="evenodd" clip-rule="evenodd" d="M34.1474 30.6873C34.134 30.5581 34.0251 30.46 33.8952 30.46C33.7653 30.46 33.6564 30.5581 33.643 30.6873L33.4426 32.6179C33.3609 33.4054 32.7384 34.0279 31.951 34.1096L30.0203 34.31C29.8911 34.3234 29.793 34.4323 29.793 34.5622C29.793 34.6921 29.8911 34.801 30.0203 34.8144L31.951 35.0148C32.7384 35.0966 33.3609 35.719 33.4426 36.5065L33.643 38.4371C33.6564 38.5663 33.7653 38.6645 33.8952 38.6645C34.0251 38.6645 34.134 38.5663 34.1474 38.4371L34.3478 36.5065C34.4296 35.719 35.052 35.0966 35.8395 35.0148L37.7701 34.8144C37.8993 34.801 37.9975 34.6921 37.9975 34.5622C37.9975 34.4323 37.8993 34.3234 37.7701 34.31L35.8395 34.1096C35.052 34.0279 34.4296 33.4054 34.3478 32.6179L34.1474 30.6873Z" fill="#F87388"/>
<path fill-rule="evenodd" clip-rule="evenodd" d="M4.35444 23.7784C4.34103 23.6492 4.23214 23.551 4.10225 23.551C3.97236 23.551 3.86347 23.6492 3.85006 23.7784L3.64965 25.709C3.5679 26.4965 2.94547 27.1189 2.15798 27.2007L0.227365 27.4011C0.0981662 27.4145 0 27.5234 0 27.6533C0 27.7832 0.0981663 27.8921 0.227365 27.9055L2.15798 28.1059C2.94547 28.1876 3.5679 28.8101 3.64965 29.5975L3.85006 31.5282C3.86347 31.6574 3.97236 31.7555 4.10225 31.7555C4.23214 31.7555 4.34103 31.6574 4.35444 31.5282L4.55485 29.5975C4.6366 28.8101 5.25903 28.1876 6.04652 28.1059L7.97714 27.9055C8.10634 27.8921 8.2045 27.7832 8.2045 27.6533C8.2045 27.5234 8.10634 27.4145 7.97714 27.4011L6.04652 27.2007C5.25903 27.1189 4.6366 26.4965 4.55485 25.709L4.35444 23.7784Z" fill="#C8D316"/>
</svg>
