<svg width="26" height="21" viewBox="0 0 26 21" fill="none" xmlns="http://www.w3.org/2000/svg">
<path fill-rule="evenodd" clip-rule="evenodd" d="M7.27604 0.379915C7.25363 0.164031 7.07169 0 6.85465 0C6.63761 0 6.45567 0.164031 6.43325 0.379915L6.09837 3.60588C5.96178 4.92172 4.92173 5.96178 3.60588 6.09837L0.379915 6.43325C0.164031 6.45567 0 6.63761 0 6.85465C0 7.07169 0.164031 7.25363 0.379915 7.27604L3.60588 7.61092C4.92172 7.74752 5.96178 8.78757 6.09837 10.1034L6.43325 13.3294C6.45567 13.5453 6.63761 13.7093 6.85465 13.7093C7.07169 13.7093 7.25363 13.5453 7.27604 13.3294L7.61092 10.1034C7.74752 8.78758 8.78757 7.74752 10.1034 7.61092L13.3294 7.27604C13.5453 7.25363 13.7093 7.07169 13.7093 6.85465C13.7093 6.63761 13.5453 6.45567 13.3294 6.43325L10.1034 6.09837C8.78757 5.96178 7.74752 4.92173 7.61092 3.60588L7.27604 0.379915Z" fill="#C8D316"/>
<path fill-rule="evenodd" clip-rule="evenodd" d="M22.6736 13.4328C22.662 13.3212 22.5679 13.2363 22.4557 13.2363C22.3434 13.2363 22.2493 13.3212 22.2377 13.4328L22.0645 15.1014C21.9938 15.782 21.4559 16.32 20.7753 16.3907L19.1067 16.5639C18.995 16.5755 18.9102 16.6696 18.9102 16.7818C18.9102 16.8941 18.995 16.9882 19.1067 16.9998L20.7753 17.173C21.4559 17.2437 21.9938 17.7816 22.0645 18.4622L22.2377 20.1308C22.2493 20.2425 22.3434 20.3273 22.4557 20.3273C22.5679 20.3273 22.662 20.2425 22.6736 20.1308L22.8468 18.4622C22.9175 17.7816 23.4555 17.2437 24.1361 17.173L25.8047 16.9998C25.9163 16.9882 26.0012 16.8941 26.0012 16.7818C26.0012 16.6696 25.9163 16.5755 25.8047 16.5639L24.1361 16.3907C23.4555 16.32 22.9175 15.782 22.8468 15.1014L22.6736 13.4328Z" fill="#A36FFE"/>
</svg>
