<svg width="161" height="31" viewBox="0 0 161 31" fill="none" xmlns="http://www.w3.org/2000/svg">
<path d="M49.8238 7.75132H52.2553L59.059 23.5449H55.8467L54.3744 19.9311H47.5261L46.0984 23.5449H42.9531L49.8238 7.75132ZM53.3929 17.5219L50.9614 11.0974L48.4853 17.5219H53.3929Z" fill="white"/>
<path d="M62.1525 7.75132H64.9632V21.0018H72.917V23.5449H62.1525V7.75132Z" fill="white"/>
<path d="M75.0585 7.75132H77.8692V21.0018H85.823V23.5449H75.0585V7.75132Z" fill="white"/>
<path d="M87.8976 7.75132H90.7083V23.5449H87.8976V7.75132Z" fill="white"/>
<path d="M100.62 7.75132H103.051L109.855 23.5449H106.643L105.171 19.9311H98.3222L96.8945 23.5449H93.7492L100.62 7.75132ZM104.189 17.5219L101.758 11.0974L99.2814 17.5219H104.189Z" fill="white"/>
<path d="M112.949 7.75132H116.674L124.325 19.4849H124.37V7.75132H127.181V23.5449H123.611L115.804 11.432H115.759V23.5449H112.949V7.75132Z" fill="white"/>
<path d="M142.883 11.4543C142.303 10.8297 141.738 10.4133 141.187 10.2051C140.652 9.99692 140.109 9.89282 139.559 9.89282C138.741 9.89282 137.997 10.0415 137.328 10.339C136.674 10.6215 136.109 11.0231 135.633 11.5436C135.157 12.0492 134.785 12.644 134.517 13.3281C134.265 14.0122 134.138 14.7484 134.138 15.5366C134.138 16.3842 134.265 17.165 134.517 17.8788C134.785 18.5927 135.157 19.2098 135.633 19.7303C136.109 20.2508 136.674 20.6598 137.328 20.9572C137.997 21.2547 138.741 21.4034 139.559 21.4034C140.198 21.4034 140.816 21.2547 141.41 20.9572C142.02 20.6449 142.585 20.1542 143.106 19.4849L145.426 21.1357C144.712 22.1172 143.842 22.831 142.816 23.2772C141.79 23.7233 140.697 23.9464 139.537 23.9464C138.317 23.9464 137.194 23.7531 136.168 23.3664C135.157 22.9649 134.28 22.4072 133.536 21.6934C132.807 20.9647 132.235 20.0947 131.818 19.0834C131.402 18.0722 131.194 16.9494 131.194 15.715C131.194 14.4509 131.402 13.3058 131.818 12.2797C132.235 11.2387 132.807 10.3538 133.536 9.62513C134.28 8.89643 135.157 8.33875 136.168 7.95209C137.194 7.55056 138.317 7.34979 139.537 7.34979C140.607 7.34979 141.596 7.54312 142.503 7.92978C143.426 8.30157 144.281 8.94104 145.069 9.84821L142.883 11.4543Z" fill="white"/>
<path d="M148.651 7.75132H160.6V10.2944H151.461V14.1758H160.198V16.7188H151.461V21.0018H161.001V23.5449H148.651V7.75132Z" fill="white"/>
<path fill-rule="evenodd" clip-rule="evenodd" d="M15.9358 30.6485C24.286 30.6485 31.0551 23.8794 31.0551 15.5292C31.0551 7.17896 24.286 0.40979 15.9358 0.40979C7.58558 0.40979 0.816406 7.17896 0.816406 15.5292C0.816406 23.8794 7.58558 30.6485 15.9358 30.6485ZM5.96875 22.831C5.96875 22.831 10.0063 18.7935 12.4117 14.67C14.817 10.5465 16.0197 5.56403 16.0197 5.56403C16.0197 5.56403 17.1365 10.3747 19.6277 14.67C22.119 18.9653 25.9847 22.831 25.9847 22.831C25.9847 22.831 21.4317 21.027 16.0197 21.027C10.6076 21.027 5.96875 22.831 5.96875 22.831Z" fill="white"/>
</svg>
