<svg width="107" height="41" viewBox="0 0 107 41" fill="none" xmlns="http://www.w3.org/2000/svg">
<g clip-path="url(#clip0_8758_26899)">
<path d="M25.6173 14.0649L25.0272 13.0286C24.9809 12.9474 24.9164 12.878 24.8389 12.8257C24.7614 12.7735 24.6728 12.7399 24.5801 12.7276C24.4875 12.7153 24.3932 12.7245 24.3047 12.7546C24.2162 12.7847 24.1359 12.8348 24.0699 12.9011L22.7126 14.2573C22.6133 14.357 22.5516 14.488 22.5378 14.628C22.5241 14.768 22.5591 14.9085 22.637 15.0257C23.132 15.782 23.5286 16.5982 23.8173 17.4547C24.3568 19.0559 24.5074 20.7624 24.2568 22.4333C24.0062 24.1041 23.3615 25.6913 22.3761 27.0637C21.3906 28.4361 20.0926 29.5543 18.5895 30.3257C17.0864 31.0972 15.4212 31.4999 13.7316 31.5004C11.9923 31.5052 10.2788 31.0798 8.74365 30.2623L11.0393 27.9654C12.4619 28.5034 14.0131 28.6024 15.4925 28.2496C16.9719 27.8967 18.3115 27.1083 19.3381 25.9861C20.3647 24.864 21.0311 23.4597 21.2512 21.9548C21.4712 20.4499 21.2349 18.9136 20.5727 17.5445C20.5306 17.4568 20.4682 17.3805 20.3905 17.3219C20.3129 17.2634 20.2224 17.2243 20.1265 17.208C20.0307 17.1917 19.9323 17.1987 19.8397 17.2282C19.747 17.2578 19.6629 17.3092 19.5942 17.378L18.2203 18.7425C18.1471 18.8156 18.0938 18.9063 18.0655 19.0059C18.0372 19.1055 18.0348 19.2106 18.0586 19.3114L18.1767 19.8047C18.3798 20.669 18.3261 21.5737 18.0224 22.4079C17.7186 23.2421 17.1779 23.9695 16.4667 24.5008C15.7554 25.0321 14.9045 25.3442 14.0184 25.3987C13.1323 25.4533 12.2495 25.248 11.4784 24.8081L10.8729 24.461C10.7572 24.3944 10.6227 24.3679 10.4904 24.3856C10.358 24.4033 10.2352 24.4643 10.1411 24.559L4.5335 30.1655C4.47229 30.2267 4.42486 30.3003 4.39438 30.3813C4.36391 30.4623 4.35109 30.5489 4.35679 30.6353C4.36249 30.7217 4.38657 30.8058 4.42743 30.8822C4.46829 30.9585 4.52497 31.0252 4.5937 31.0778L5.41991 31.7117C7.80259 33.5478 10.7283 34.5394 13.7363 34.5302C16.1312 34.5272 18.4833 33.896 20.558 32.6997C22.6327 31.5034 24.3573 29.7839 25.5596 27.7128C26.762 25.6417 27.4001 23.2914 27.4102 20.8965C27.4204 18.5017 26.8021 16.1461 25.6173 14.0649Z" fill="white"/>
<path d="M22.0481 9.98699C19.6657 8.15018 16.7399 7.15817 13.7317 7.16724C11.3357 7.1691 8.98211 7.7997 6.90614 8.99602C4.83017 10.1923 3.10449 11.9125 1.90152 13.9846C0.698555 16.0568 0.0604247 18.4083 0.0508897 20.8043C0.0413547 23.2003 0.660749 25.5568 1.84719 27.6385L2.43734 28.6736C2.48382 28.7547 2.54836 28.8241 2.62595 28.8763C2.70354 28.9284 2.79211 28.9621 2.88479 28.9745C2.97746 28.9869 3.07176 28.9779 3.16037 28.948C3.24898 28.9181 3.32952 28.8683 3.39575 28.8022L4.75074 27.4473C4.8493 27.3474 4.91058 27.2167 4.92432 27.077C4.93807 26.9374 4.90346 26.7972 4.82628 26.6801C4.33089 25.924 3.93424 25.1077 3.64597 24.251C3.10651 22.6499 2.95587 20.9433 3.20649 19.2725C3.45711 17.6016 4.1018 16.0144 5.08727 14.642C6.07273 13.2696 7.37068 12.1515 8.87382 11.38C10.377 10.6085 12.0421 10.2059 13.7317 10.2053C15.4709 10.2014 17.1841 10.628 18.7185 11.447L16.4216 13.7427C15.271 13.3066 14.0317 13.1565 12.8103 13.3051C11.5888 13.4537 10.4217 13.8966 9.40924 14.5959C8.39677 15.2951 7.56922 16.2297 6.9977 17.3194C6.42618 18.4091 6.12779 19.6212 6.12816 20.8517C6.12816 20.978 6.16239 21.554 6.17301 21.6531C6.26609 22.5249 6.50844 23.3741 6.88945 24.1636C6.93164 24.2513 6.99423 24.3276 7.07197 24.3862C7.14971 24.4447 7.24034 24.4837 7.33627 24.5C7.43221 24.5163 7.53065 24.5094 7.62335 24.4798C7.71606 24.4503 7.80033 24.3989 7.86911 24.3301L9.24298 22.955C9.31616 22.882 9.36951 22.7916 9.39802 22.6923C9.42652 22.5929 9.42922 22.488 9.40587 22.3873L9.28784 21.8927C9.08447 21.0285 9.13792 20.1236 9.44164 19.2893C9.74536 18.455 10.2861 17.7276 10.9975 17.1963C11.7089 16.6651 12.5599 16.3531 13.4462 16.2988C14.3324 16.2445 15.2151 16.4502 15.9861 16.8906L16.5916 17.2376C16.7074 17.3037 16.8418 17.3299 16.974 17.3122C17.1062 17.2945 17.2289 17.2339 17.3234 17.1396L22.9298 11.5332C22.9911 11.472 23.0386 11.3983 23.0692 11.3173C23.0998 11.2362 23.1127 11.1495 23.1072 11.063C23.1016 10.9766 23.0776 10.8923 23.0368 10.8158C22.9961 10.7394 22.9395 10.6725 22.8708 10.6196L22.0481 9.98699Z" fill="white"/>
<path d="M45.0952 24.6253C44.9929 24.5422 44.8644 24.4983 44.7327 24.5013C44.601 24.5043 44.4747 24.5541 44.3764 24.6418C43.4971 25.324 42.4773 25.9555 40.9865 25.9555C38.2577 25.9555 36.0375 23.6574 36.0375 20.8306C36.0375 18.0038 38.2494 15.6856 40.9665 15.6856C42.1468 15.6856 43.4215 16.1825 44.3587 17.0052C44.4115 17.0665 44.4772 17.1154 44.551 17.1484C44.6248 17.1815 44.7051 17.1979 44.7859 17.1964C44.856 17.1909 44.9241 17.17 44.9852 17.1353C45.0464 17.1007 45.0992 17.053 45.14 16.9958L46.0276 16.0822C46.0841 16.0276 46.1287 15.9618 46.1586 15.8891C46.1884 15.8164 46.2029 15.7383 46.2011 15.6597C46.1978 15.5798 46.1781 15.5015 46.1431 15.4296C46.1082 15.3577 46.0588 15.2938 45.9981 15.2418C44.4484 13.8916 42.8916 13.2896 40.9452 13.2896C36.7906 13.2896 33.4102 16.6913 33.4102 20.8719C33.4117 22.8704 34.2059 24.7867 35.6185 26.2004C37.0311 27.6141 38.9467 28.4097 40.9452 28.4129C41.8841 28.424 42.8158 28.2493 43.6868 27.8988C44.5579 27.5484 45.351 27.0291 46.0205 26.3709C46.0793 26.311 46.1254 26.2399 46.1563 26.1619C46.1871 26.0838 46.2019 26.0004 46.2 25.9165C46.1984 25.8497 46.1833 25.784 46.1558 25.7231C46.1282 25.6623 46.0886 25.6076 46.0394 25.5624L45.0952 24.6253Z" fill="white"/>
<path d="M51.5551 13.495H50.2107C50.0607 13.5 49.9183 13.562 49.8124 13.6684C49.7065 13.7747 49.645 13.9174 49.6406 14.0674V27.641C49.6447 27.7912 49.706 27.9342 49.812 28.0408C49.9179 28.1474 50.0605 28.2095 50.2107 28.2146H51.5551C51.7053 28.2095 51.8479 28.1474 51.9538 28.0408C52.0598 27.9342 52.121 27.7912 52.1252 27.641V14.0674C52.1208 13.9174 52.0593 13.7747 51.9534 13.6684C51.8475 13.562 51.7051 13.5 51.5551 13.495Z" fill="white"/>
<path d="M67.4638 18.0639C67.4638 15.5451 65.39 13.4949 62.8405 13.4949H57.2966C57.1452 13.4956 57.0002 13.5561 56.8934 13.6634C56.7865 13.7707 56.7266 13.916 56.7266 14.0674V27.6409C56.7262 27.7925 56.7861 27.9381 56.893 28.0456C56.9999 28.1532 57.145 28.2139 57.2966 28.2145H58.621C58.7712 28.2095 58.9138 28.1473 59.0197 28.0407C59.1256 27.9341 59.1869 27.7911 59.191 27.6409V22.5927H61.9695L64.6311 27.9218C64.6795 28.0091 64.7505 28.0818 64.8367 28.1323C64.9229 28.1827 65.021 28.2091 65.1209 28.2086H66.7096C66.81 28.212 66.9094 28.1887 66.9979 28.1413C67.0864 28.0938 67.1608 28.0238 67.2136 27.9383C67.2638 27.8481 67.2902 27.7465 67.2902 27.6433C67.2902 27.54 67.2638 27.4384 67.2136 27.3482L64.513 22.3154C66.3378 21.5045 67.4638 19.8922 67.4638 18.0639ZM64.9793 18.1052C64.9793 19.3835 63.9252 20.4658 62.6777 20.4658H59.2324V15.8496H62.6729C63.9229 15.8496 64.9745 16.8824 64.9745 18.1052H64.9793Z" fill="white"/>
<path d="M81.9358 24.6253C81.8335 24.5422 81.705 24.4983 81.5733 24.5013C81.4416 24.5043 81.3153 24.5541 81.217 24.6418C80.3376 25.324 79.3178 25.9555 77.8271 25.9555C75.0982 25.9555 72.8781 23.6574 72.8781 20.8306C72.8781 18.0038 75.0888 15.6856 77.8059 15.6856C78.9862 15.6856 80.2609 16.1825 81.1992 17.0052C81.2523 17.0671 81.3186 17.1163 81.3931 17.1494C81.4676 17.1825 81.5486 17.1986 81.6301 17.1964C81.7002 17.1909 81.7682 17.17 81.8293 17.1353C81.8905 17.1007 81.9434 17.053 81.9842 16.9958L82.8717 16.0822C82.9281 16.0275 82.9725 15.9617 83.0021 15.889C83.0318 15.8163 83.0461 15.7382 83.0441 15.6597C83.0412 15.5798 83.0218 15.5015 82.9871 15.4295C82.9523 15.3576 82.903 15.2937 82.8422 15.2418C81.296 13.8916 79.7392 13.2896 77.7929 13.2896C73.6382 13.2896 70.2578 16.6913 70.2578 20.8719C70.2594 22.8704 71.0536 24.7867 72.4661 26.2004C73.8787 27.6141 75.7944 28.4097 77.7929 28.4129C78.7317 28.4239 79.6634 28.2491 80.5344 27.8987C81.4054 27.5482 82.1986 27.029 82.8682 26.3709C82.927 26.3109 82.9732 26.2396 83.004 26.1613C83.0349 26.0831 83.0497 25.9994 83.0476 25.9153C83.0461 25.8486 83.0311 25.7828 83.0035 25.7219C82.9759 25.6611 82.9363 25.6064 82.8871 25.5613L81.9358 24.6253Z" fill="white"/>
<path d="M94.3 25.9354H88.965V14.0674C88.9606 13.9174 88.8992 13.7747 88.7933 13.6684C88.6874 13.562 88.5449 13.5 88.3949 13.495H87.0506C86.8991 13.4956 86.7541 13.5562 86.6473 13.6635C86.5405 13.7708 86.4805 13.916 86.4805 14.0674V27.641C86.4802 27.7926 86.54 27.9381 86.6469 28.0457C86.7538 28.1532 86.8989 28.214 87.0506 28.2146H94.3C94.3752 28.2144 94.4496 28.1995 94.519 28.1706C94.5884 28.1417 94.6514 28.0994 94.7044 28.0461C94.7575 27.9928 94.7995 27.9296 94.8281 27.8601C94.8568 27.7906 94.8714 27.7161 94.8713 27.641V26.5138C94.872 26.4382 94.8579 26.3632 94.8295 26.2932C94.8012 26.2231 94.7592 26.1594 94.7061 26.1056C94.653 26.0518 94.5898 26.0091 94.5201 25.9799C94.4504 25.9507 94.3756 25.9356 94.3 25.9354Z" fill="white"/>
<path d="M106.374 15.7919C106.526 15.7913 106.671 15.7307 106.778 15.6234C106.884 15.5161 106.944 15.3709 106.944 15.2195V14.071C106.944 13.9196 106.884 13.7744 106.778 13.6671C106.671 13.5598 106.526 13.4992 106.374 13.4986H98.2302C98.0788 13.4992 97.9338 13.5598 97.827 13.6671C97.7201 13.7744 97.6602 13.9196 97.6602 14.071V27.6446C97.6598 27.7962 97.7197 27.9417 97.8266 28.0493C97.9334 28.1568 98.0786 28.2176 98.2302 28.2182H106.374C106.526 28.2176 106.671 28.1568 106.778 28.0493C106.885 27.9417 106.945 27.7962 106.944 27.6446V26.5174C106.944 26.366 106.884 26.2207 106.778 26.1134C106.671 26.0061 106.526 25.9455 106.374 25.9449H100.119V21.8953H105.372C105.524 21.895 105.669 21.8345 105.776 21.7272C105.883 21.6199 105.944 21.4745 105.944 21.3228V20.1756C105.939 20.0252 105.878 19.882 105.772 19.7754C105.666 19.6688 105.523 19.6067 105.372 19.602H100.122V15.7919H106.374Z" fill="white"/>
</g>
<defs>
<clipPath id="clip0_8758_26899">
<rect width="106.839" height="39.7721" fill="white" transform="translate(0 0.981079)"/>
</clipPath>
</defs>
</svg>
