<svg width="63" height="39" viewBox="0 0 63 39" fill="none" xmlns="http://www.w3.org/2000/svg">
<path fill-rule="evenodd" clip-rule="evenodd" d="M3.55101 33.5606L5.3128 38.2515H6.2144L8.01113 33.4433H7.05416L5.79774 37.0646L4.52142 33.3938L3.55101 33.5606ZM11.917 33.4428V38.2295H14.768V37.4534H12.825V36.1357H14.3927L14.268 35.3451H12.825V34.22H14.6981V33.4428H11.917ZM21.7813 33.4428V36.58L19.6308 33.4433H18.7631V38.23H19.6163V34.9353L21.8716 38.2306H22.635V33.4428H21.7813ZM26.5963 33.4428V34.2404H28.0177V38.2311H28.9403V34.2404H30.4456L30.3139 33.4433L26.5963 33.4428ZM38.1659 36.3568V33.4439H37.2428V36.3498C37.2428 37.0866 36.903 37.5169 36.2235 37.5169C35.5504 37.5169 35.2181 37.0581 35.2181 36.3299V33.4439H34.302V36.3777C34.302 37.6266 35.0579 38.3139 36.217 38.3139C37.3751 38.3139 38.1654 37.6266 38.1654 36.3562L38.1659 36.3568ZM44.6174 36.2255C45.2066 36.0104 45.5744 35.5737 45.5744 34.8793C45.5744 33.9489 44.9292 33.4433 43.861 33.4433H42.3755V38.23H43.2927V36.3982H43.7088L44.9572 38.279L45.8937 38.1058L44.6174 36.2255ZM44.6722 34.9277C44.6722 35.4269 44.3185 35.6968 43.7497 35.6968H43.2857V34.178H43.7911C44.3674 34.178 44.6728 34.4485 44.6728 34.9272L44.6722 34.9277ZM52.5941 38.2306V37.4534H50.6522V36.1357H52.2199L52.0952 35.344H50.6528V34.22H52.5259V33.4439H49.7437V38.2306H52.5941ZM59.5031 36.8634C59.5031 36.1212 59.1429 35.7813 58.1575 35.379C57.4919 35.1015 57.3392 34.9557 57.3392 34.6508C57.3392 34.3587 57.5408 34.1371 57.9983 34.1371C58.3725 34.1371 58.7817 34.2823 59.1284 34.5109L59.2671 33.6784C58.9204 33.4982 58.5467 33.3879 58.0048 33.3879C57.1102 33.3879 56.458 33.88 56.458 34.7271C56.458 35.4693 56.8322 35.7738 57.7618 36.1556C58.4553 36.4536 58.622 36.5993 58.622 36.9532C58.622 37.3351 58.3306 37.5362 57.9069 37.5362C57.4285 37.5362 56.9295 37.3491 56.5274 37.113L56.3876 37.952C56.858 38.1749 57.3725 38.2889 57.893 38.2854C58.8166 38.2854 59.5026 37.7998 59.5026 36.8629L59.5031 36.8634ZM0.591386 29.2165H10.1686V28.7432C8.19823 28.7039 7.52781 28.4286 7.52781 27.2459V12.4232H14.7013V27.2459C14.7013 28.4291 13.9917 28.7034 12.2578 28.7437V29.217H21.7173V28.7437C19.3131 28.7045 18.84 28.4291 18.84 27.2464V10.9635L13.4798 11.2002H7.52835V7.53431C7.52835 4.49878 8.00146 3.27629 8.82832 2.44856C9.53799 1.77842 10.524 1.42345 11.825 1.42345C13.4798 1.42345 14.7411 2.25171 15.2148 3.1585C14.5438 3.63179 14.0712 4.45898 14.0712 5.24798C14.0712 6.94215 15.2927 7.61337 16.554 7.61337C17.9341 7.61337 18.8803 6.58826 18.8803 5.12966C18.8803 3.11816 16.8696 0.71405 11.7853 0.71405C9.18423 0.71405 7.05578 1.38419 5.51871 2.92185C4.13863 4.34173 3.38972 6.39087 3.38972 9.74157V11.0819L0 11.9494V12.4625H3.38972V27.2453C3.38972 28.4286 2.83758 28.7029 0.590849 28.7432V29.2165H0.591386ZM30.1473 21.8837L31.9214 20.1099L36.2955 26.4563C37.2417 27.8364 37.1235 28.5464 35.0751 28.7437V29.217H44.4158V28.7437C42.6024 28.5469 42.2083 28.2317 40.5137 25.8271L34.6015 17.4686L36.7305 15.3399C39.2519 12.8949 40.6713 11.9881 42.9572 11.5159V11.0426H34.6015V11.5159C37.3595 12.0279 37.6358 13.1708 35.9412 14.9451L30.1473 20.8989V0.950697L22.8555 1.18627V1.65956C25.6146 1.73862 26.0092 2.3297 26.0092 3.66998V27.2453C26.0092 28.4286 25.4963 28.7029 23.2103 28.7432V29.2165H32.237V28.7432C30.6994 28.7039 30.1473 28.4286 30.1473 27.2459V21.8837ZM52.1049 27.6396C50.0942 27.6396 49.1888 26.2993 49.1888 24.4072C49.1888 21.7261 50.3318 20.5832 55.5737 19.5576V25.4323C54.7844 26.5365 53.5232 27.6401 52.1044 27.6401L52.1049 27.6396ZM49.8184 29.4537C52.2619 29.4537 54.1151 28.0741 55.6124 26.3396H55.7699C56.0064 28.4684 56.8344 29.3752 59.0413 29.3752C60.4209 29.3752 61.4456 28.9019 62.8251 28.0343L62.6676 27.6406C60.3816 28.5872 59.672 27.759 59.672 25.8281V16.642C59.672 12.5813 57.3064 10.8468 52.8538 10.8468C48.4001 10.8468 45.5233 12.5421 45.5233 14.8682C45.5233 16.1697 46.4292 17.1943 47.8093 17.1943C49.3469 17.1943 50.1748 16.2477 50.1748 14.8682C50.1748 14.0792 49.7797 13.3698 49.1103 12.7384C49.8189 12.0295 51.0404 11.596 52.3807 11.596C54.7065 11.596 55.5742 13.0148 55.5742 15.9718V18.81C54.6667 19.2429 50.0555 19.4796 47.1389 21.0958C45.4841 22.0025 44.7744 23.5402 44.7744 25.0779C44.7744 27.2857 46.3109 29.4537 49.8189 29.4537" fill="white"/>
</svg>
