<svg width="100" height="31" viewBox="0 0 100 31" fill="none" xmlns="http://www.w3.org/2000/svg">
<path d="M0 23.7759C0 19.8327 3.09168 16.6993 6.85136 16.6993C9.17048 16.6993 11.2079 17.8611 12.297 19.7623L11.2435 20.396C10.3301 18.8821 8.6782 17.9315 6.85136 17.9315C3.86496 17.9315 1.37013 20.5017 1.37013 23.7759C1.37013 27.0853 3.82939 29.6554 6.85136 29.6554C8.6782 29.6554 10.3301 28.74 11.2435 27.2261L12.297 27.8599C11.2079 29.7611 9.17048 30.9229 6.85136 30.9229C3.09168 30.8877 0 27.7542 0 23.7759Z" fill="white"/>
<path d="M16.2322 18.3541C16.5836 17.2275 17.3917 16.6994 18.446 16.6994C19.5003 16.6994 20.3084 17.2275 20.6591 18.3541L24.5241 30.6765H23.1895L22.03 26.839L14.9325 26.8742L13.7025 30.6765H12.3672L16.2322 18.3541ZM15.2483 25.6068H21.6081L19.5003 18.7414C19.3246 18.1781 18.9731 17.8964 18.446 17.8964C17.884 17.8964 17.5674 18.1781 17.3917 18.7414L15.2483 25.6068Z" fill="white"/>
<path d="M26.4922 30.6764V16.9105H30.4631C33.9767 16.9105 36.3655 18.4596 36.3655 21.6634C36.3655 24.9729 33.8707 26.4516 30.498 26.4516H27.7926V30.7116H26.4922V30.6764ZM27.7926 18.1428V25.1842H30.4631C32.9928 25.1842 34.9954 24.1632 34.9954 21.6282C34.9954 19.199 33.133 18.1076 30.4631 18.1076H27.7926V18.1428Z" fill="white"/>
<path d="M39.4918 16.9105V30.6764H38.1914V16.9105H39.4918Z" fill="white"/>
<path d="M50.8765 18.1428H46.4851V30.6764H45.1847V18.1428H40.8281V16.9105H50.8765V18.1428Z" fill="white"/>
<path d="M53.865 18.3541C54.2164 17.2275 55.0245 16.6994 56.0781 16.6994C57.1324 16.6994 57.9405 17.2275 58.2919 18.3541L62.1569 30.6765H60.7868L59.6272 26.839L52.5297 26.8742L51.3353 30.7117H50L53.865 18.3541ZM52.8811 25.6068H59.2402L57.1324 18.7414C56.9567 18.1781 56.6052 17.8964 56.0781 17.8964C55.5161 17.8964 55.2002 18.1781 55.0245 18.7414L52.8811 25.6068Z" fill="white"/>
<path d="M65.4208 29.4442H72.5887V30.6764H65.4208C64.4369 30.6764 64.1211 30.1835 64.1211 29.3738V16.9105H65.4208V29.4442Z" fill="white"/>
<path d="M99.6857 20.0711C99.4211 20.9559 99.0672 21.7964 98.6703 22.5485C98.538 22.8139 98.4057 23.0351 98.2725 23.3005C97.5663 24.318 96.3301 25.0258 95.0054 25.0258C93.8138 25.0258 92.7099 24.4949 92.0037 23.6544C91.959 23.6102 91.9152 23.5659 91.8714 23.5218C91.1206 22.6812 90.0613 22.1503 88.8689 22.1503C88.5596 22.1503 88.295 22.1945 88.0304 22.2388V30.5114C87.1473 30.6883 86.1756 30.7768 85.2487 30.7768C76.8603 30.7768 70.1055 23.9641 70.1055 15.603C70.1055 7.24192 76.8162 0.384949 85.2049 0.384949C86.7942 0.384949 88.3388 0.65038 89.7958 1.09277L85.2925 5.6051L88.0304 8.34789L97.6548 17.9919L98.0517 18.3901L99.6857 20.0711Z" fill="url(#paint0_linear_8758_26933)"/>
<path d="M0.496094 11.7496L1.6232 11.1849C2.22199 12.5613 3.59565 13.3025 5.35677 13.3025C7.25877 13.3025 8.70284 12.3143 8.70284 10.6202C8.70284 8.78493 7.04743 8.432 5.2511 8.04377C3.17299 7.58501 0.813094 6.98498 0.813094 4.23213C0.813094 2.0792 2.82076 0.42041 5.21587 0.42041C7.18833 0.42041 8.98468 1.37334 9.72434 3.1733L8.63246 3.738C7.99841 2.39684 6.80088 1.65568 5.18065 1.65568C3.56043 1.65568 2.15154 2.71448 2.15154 4.16153C2.15154 5.99679 3.84221 6.34972 5.67376 6.73795C7.75188 7.19678 10.0766 7.79674 10.0766 10.5849C10.0061 13.0202 7.96318 14.5731 5.35677 14.5731C3.17299 14.5731 1.27099 13.5848 0.496094 11.7496Z" fill="white"/>
<path d="M12.3672 14.4317V0.631958H13.6704V6.94947H21.842V0.631958H23.1452V14.4317H21.842V8.14946H13.6704V14.3964H12.3672V14.4317Z" fill="white"/>
<path d="M27.8266 0.632019V14.4317H26.5234V0.632019H27.8266Z" fill="white"/>
<path d="M30.1875 14.4317L32.16 1.90257C32.336 0.914351 33.0405 0.384949 33.921 0.384949C34.6959 0.384949 35.4004 0.773179 35.6469 1.65551L38.6056 12.1376C38.676 12.4553 38.7465 12.5612 38.9226 12.5612C39.0987 12.5612 39.1691 12.42 39.2396 12.1376L42.1982 1.6908C42.4449 0.808472 43.1493 0.384949 43.9242 0.384949C44.7695 0.384949 45.474 0.914351 45.65 1.93786L47.4464 14.3611H46.1432L44.4525 2.29079C44.3821 1.83198 44.2764 1.54963 43.8889 1.54963C43.6072 1.54963 43.3958 1.79669 43.2901 2.22021L40.2258 12.7377C40.0497 13.3729 39.5214 13.7259 38.9226 13.7259C38.359 13.7259 37.7955 13.4082 37.6194 12.773L34.555 2.18491C34.4142 1.7614 34.2733 1.54963 33.9915 1.54963C33.7097 1.54963 33.4631 1.79669 33.3927 2.29079L31.5259 14.3964H30.1875V14.4317Z" fill="white"/>
<path d="M52.3431 2.07914C52.6954 0.949752 53.5055 0.420349 54.5622 0.420349C55.5836 0.420349 56.429 0.949752 56.7812 2.07914L60.6556 14.4318H59.3172L58.1548 10.5849L51.04 10.6201L49.8072 14.4318H48.4688L52.3431 2.07914ZM51.3569 9.3496H57.7322L55.6188 2.46737C55.4427 1.90268 55.0905 1.62033 54.5622 1.62033C53.9986 1.62033 53.6816 1.90268 53.5055 2.46737L51.3569 9.3496Z" fill="white"/>
<defs>
<linearGradient id="paint0_linear_8758_26933" x1="95.0328" y1="0.38495" x2="77.1553" y2="33.0115" gradientUnits="userSpaceOnUse">
<stop stop-color="white" stop-opacity="0.3"/>
<stop offset="1" stop-color="white"/>
</linearGradient>
</defs>
</svg>
